<svg width="24" height="24" viewBox="0 0 24 24" fill="none" xmlns="http://www.w3.org/2000/svg">
<path d="M12.9352 4.30388C13.2077 4.50048 13.4114 4.77789 13.5173 5.09677L14.6099 8.37759C14.6884 8.61344 14.8207 8.82774 14.9965 9.00351C15.1723 9.17927 15.3866 9.31165 15.6224 9.39016L18.9033 10.4827C19.2221 10.5886 19.4995 10.7923 19.6961 11.0648C19.8927 11.3373 19.9986 11.6647 19.9986 12.0007C19.9986 12.3367 19.8927 12.6642 19.6961 12.9367C19.4995 13.2092 19.2221 13.4128 18.9033 13.5188L15.6224 14.6113C15.3866 14.6898 15.1723 14.8222 14.9965 14.998C14.8207 15.1737 14.6884 15.388 14.6099 15.6239L13.5173 18.9047C13.4114 19.2236 13.2077 19.501 12.9352 19.6976C12.6628 19.8942 12.3353 20 11.9993 20C11.6633 20 11.3358 19.8942 11.0633 19.6976C10.7908 19.501 10.5872 19.2236 10.4812 18.9047L9.38869 15.6239C9.30998 15.3883 9.1775 15.1744 9.00175 14.9989C8.826 14.8234 8.6118 14.6913 8.37613 14.6129L5.0953 13.5188C4.77643 13.4128 4.49901 13.2092 4.30241 12.9367C4.10581 12.6642 4 12.3367 4 12.0007C4 11.6647 4.10581 11.3373 4.30241 11.0648C4.49901 10.7923 4.77643 10.5886 5.0953 10.4827L8.37613 9.39016C8.61197 9.31165 8.82628 9.17927 9.00204 9.00351C9.1778 8.82774 9.31019 8.61344 9.38869 8.37759L10.4812 5.09677C10.5872 4.77789 10.7908 4.50048 11.0633 4.30388C11.3358 4.10727 11.6633 4.00146 11.9993 4.00146C12.3353 4.00146 12.6628 4.10727 12.9352 4.30388Z" fill="#E31A4B"/>
</svg> 