<svg width="76" height="76" viewBox="0 0 76 76" fill="none" xmlns="http://www.w3.org/2000/svg">
<path id="Polygon 16" d="M34.0989 0.883948L38 0.679503L41.9011 0.883948L45.7594 1.49504L49.5327 2.5061L53.1796 3.90603L56.6603 5.6795L59.9364 7.80707L62.9723 10.2655L65.7345 13.0277L68.1929 16.0636L70.3205 19.3398L72.094 22.8204L73.4939 26.4673L74.505 30.2406L75.1161 34.099L75.3205 38L75.1161 41.901L74.5049 45.7594L73.4939 49.5327L72.094 53.1796L70.3205 56.6603L68.1929 59.9364L65.7345 62.9723L62.9723 65.7345L59.9364 68.1929L56.6603 70.3205L53.1796 72.094L49.5327 73.4939L45.7594 74.5049L41.901 75.1161L38 75.3205L34.099 75.1161L30.2406 74.505L26.4673 73.4939L22.8204 72.094L19.3398 70.3205L16.0636 68.1929L13.0277 65.7345L10.2655 62.9723L7.80707 59.9364L5.6795 56.6603L3.90603 53.1796L2.5061 49.5327L1.49504 45.7594L0.883948 41.9011L0.679503 38L0.883948 34.0989L1.49504 30.2406L2.5061 26.4673L3.90603 22.8204L5.6795 19.3398L7.80709 16.0636L10.2655 13.0277L13.0277 10.2655L16.0636 7.80709L19.3398 5.6795L22.8204 3.90603L26.4673 2.5061L30.2406 1.49504L34.0989 0.883948Z" fill="#E5ECF9" stroke="#C6D8F1" stroke-width="1.35714"/>
</svg>
